<svg xmlns="http://www.w3.org/2000/svg" width="47" height="44" viewBox="0 0 47 44">
  <defs>
    <style>
      .cls-1 {
        fill: #262626;
        fill-rule: evenodd;
      }
    </style>
  </defs>
  <path id="icon" class="cls-1" d="M45.064,6.006a2.666,2.666,0,0,0-2.092-1.015H15.855a2.665,2.665,0,0,0-2.538,3.478l4.991,15.607a1.657,1.657,0,0,0,1.579,1.154h20.3A1.658,1.658,0,0,0,41.8,23.959l3.761-15.68A2.67,2.67,0,0,0,45.064,6.006ZM44.423,28.184H18.236a2.127,2.127,0,0,1-2.029-1.476L9,4.355A5.077,5.077,0,0,0,4.153.823H2.577a2.429,2.429,0,0,0,0,4.857H4.153a0.236,0.236,0,0,1,.225.164L11.586,28.2a6.969,6.969,0,0,0,6.65,4.845H44.423A2.429,2.429,0,0,0,44.423,28.184ZM19.957,35.837a3.873,3.873,0,1,0,3.871,3.873A3.872,3.872,0,0,0,19.957,35.837Zm20.329,0a3.873,3.873,0,1,0,3.871,3.873A3.872,3.872,0,0,0,40.286,35.837Z"/>
</svg>
